<?xml version="1.0" encoding="UTF-8" standalone="no"?>
<svg
   xmlns:dc="http://purl.org/dc/elements/1.1/"
   xmlns:cc="http://creativecommons.org/ns#"
   xmlns:rdf="http://www.w3.org/1999/02/22-rdf-syntax-ns#"
   xmlns:svg="http://www.w3.org/2000/svg"
   xmlns="http://www.w3.org/2000/svg"
   xmlns:sodipodi="http://sodipodi.sourceforge.net/DTD/sodipodi-0.dtd"
   xmlns:inkscape="http://www.inkscape.org/namespaces/inkscape"
   viewBox="0 0 100 100"
   version="1.1"
   id="svg4"
   sodipodi:docname="copyright.svg"
   width="100"
   height="100"
   inkscape:version="1.0.2-2 (e86c870879, 2021-01-15)">
  <metadata
     id="metadata10">
    <rdf:RDF>
      <cc:Work
         rdf:about="">
        <dc:format>image/svg+xml</dc:format>
        <dc:type
           rdf:resource="http://purl.org/dc/dcmitype/StillImage" />
      </cc:Work>
    </rdf:RDF>
  </metadata>
  <defs
     id="defs8" />
  <sodipodi:namedview
     pagecolor="#ffffff"
     bordercolor="#666666"
     borderopacity="1"
     objecttolerance="10"
     gridtolerance="10"
     guidetolerance="10"
     inkscape:pageopacity="0"
     inkscape:pageshadow="2"
     inkscape:window-width="1366"
     inkscape:window-height="705"
     id="namedview6"
     showgrid="false"
     inkscape:zoom="5.3300002"
     inkscape:cx="49.999998"
     inkscape:cy="49.999998"
     inkscape:window-x="-8"
     inkscape:window-y="-8"
     inkscape:window-maximized="1"
     inkscape:current-layer="svg4" />
  <!-- Font Awesome Free 5.15.2 by @fontawesome - https://fontawesome.com License - https://fontawesome.com/license/free
    (Icons: CC BY 4.0, Fonts: SIL OFL 1.1, Code: MIT License) -->
  <path
     d="M 49.999998,0 C 22.385684,0 0,22.385684 0,49.999998 c 0,27.614309 22.385684,49.999998 49.999998,49.999998 27.614309,0 49.999998,-22.385689 49.999998,-49.999998 C 99.999996,22.385684 77.614307,0 49.999998,0 Z m 0,90.322579 c -22.284676,0 -40.3225785,-18.03448 -40.3225785,-40.322581 0,-22.284475 18.0344755,-40.3225785 40.3225785,-40.3225785 22.284676,0 40.322581,18.0344755 40.322581,40.3225785 0,22.284676 -18.03448,40.322581 -40.322581,40.322581 z M 71.643342,69.946771 c -1.938307,1.958061 -9.179435,8.345962 -20.980845,8.345962 -16.618952,0 -28.323385,-12.384068 -28.323385,-28.541728 0,-15.958063 12.152215,-28.105039 28.17782,-28.105039 11.195766,0 17.890723,5.366936 19.676006,7.011897 a 2.4122983,2.4122983 0 0 1 0.390323,3.089111 l -3.660282,5.667941 c -0.774395,1.199598 -2.412499,1.468146 -3.528022,0.588913 -1.732866,-1.366129 -6.414115,-4.543953 -12.44113,-4.543953 -9.738509,0 -15.708871,7.122984 -15.708871,16.145565 0,8.384876 5.420969,16.873386 15.781654,16.873386 6.584071,0 11.460282,-3.838508 13.251208,-5.488909 1.0625,-0.979237 2.74113,-0.814316 3.592743,0.350402 l 4.005036,5.477822 a 2.4086692,2.4086692 0 0 1 -0.232255,3.12863 z"
     id="path2"
     style="stroke-width:0.201613" />
</svg>
