<?xml version="1.0" encoding="UTF-8" standalone="no"?>
<svg
   xmlns:dc="http://purl.org/dc/elements/1.1/"
   xmlns:cc="http://creativecommons.org/ns#"
   xmlns:rdf="http://www.w3.org/1999/02/22-rdf-syntax-ns#"
   xmlns:svg="http://www.w3.org/2000/svg"
   xmlns="http://www.w3.org/2000/svg"
   xmlns:sodipodi="http://sodipodi.sourceforge.net/DTD/sodipodi-0.dtd"
   xmlns:inkscape="http://www.inkscape.org/namespaces/inkscape"
   width="52.916668mm"
   height="8.2521124mm"
   viewBox="0 0 52.916668 8.2521123"
   version="1.1"
   id="svg8"
   inkscape:version="1.0.2-2 (e86c870879, 2021-01-15)"
   sodipodi:docname="Maven-Developers.svg">
  <defs
     id="defs2" />
  <sodipodi:namedview
     id="base"
     pagecolor="#ffffff"
     bordercolor="#666666"
     borderopacity="1.0"
     inkscape:pageopacity="0.0"
     inkscape:pageshadow="2"
     inkscape:zoom="2.8"
     inkscape:cx="150"
     inkscape:cy="23.158474"
     inkscape:document-units="mm"
     inkscape:current-layer="layer1"
     inkscape:document-rotation="0"
     showgrid="false"
     inkscape:window-width="1366"
     inkscape:window-height="705"
     inkscape:window-x="-8"
     inkscape:window-y="-8"
     inkscape:window-maximized="1" />
  <metadata
     id="metadata5">
    <rdf:RDF>
      <cc:Work
         rdf:about="">
        <dc:format>image/svg+xml</dc:format>
        <dc:type
           rdf:resource="http://purl.org/dc/dcmitype/StillImage" />
        <dc:title />
      </cc:Work>
    </rdf:RDF>
  </metadata>
  <g
     inkscape:label="Layer 1"
     inkscape:groupmode="layer"
     id="layer1"
     transform="translate(0,-0.28852183)">
    <g
       id="g213">
      <path
         id="rect18"
         style="fill:#8000e8;fill-opacity:1;stroke:none;stroke-width:0.0316032;stroke-linecap:round"
         d="M 2.6673493,0.28852183 H 50.249319 c 1.477711,0 2.667349,1.18963777 2.667349,2.66734937 v 2.9174137 c 0,1.4777115 -1.189638,2.6673493 -2.667349,2.6673493 H 2.6673493 C 1.1896378,8.5406342 0,7.3509964 0,5.8732849 V 2.9558712 C 0,1.4781596 1.1896378,0.28852183 2.6673493,0.28852183 Z" />
      <g
         id="g192">
        <g
           aria-label="MAVEN"
           id="text12"
           style="font-style:normal;font-variant:normal;font-weight:800;font-stretch:normal;font-size:38.1px;line-height:1.25;font-family:Montserrat;-inkscape-font-specification:'Montserrat Ultra-Bold';text-align:center;letter-spacing:0px;word-spacing:0px;text-anchor:middle;fill:#ffffff;stroke-width:0.264583"
           transform="matrix(0.13645225,0,0,0.13645225,-0.97993879,-0.79456766)">
          <path
             d="m 46.231358,48.526699 -0.0762,-14.135099 -6.858,11.506199 H 35.944359 L 29.124459,34.7726 v 13.754099 h -6.9723 V 21.8567 h 6.2103 l 9.3726,15.3924 9.143999,-15.3924 h 6.2103 l 0.0762,26.669999 z"
             style="font-style:normal;font-variant:normal;font-weight:800;font-stretch:normal;font-size:38.1px;font-family:Montserrat;-inkscape-font-specification:'Montserrat Ultra-Bold';fill:#ffffff;stroke-width:0.264583"
             id="path29" />
          <path
             d="m 76.368402,43.345099 h -11.2776 l -2.0955,5.1816 H 55.299103 L 67.072002,21.8567 h 7.4295 l 11.810999,26.669999 h -7.848599 z m -2.2098,-5.5626 -3.429,-8.534399 -3.429,8.534399 z"
             style="font-style:normal;font-variant:normal;font-weight:800;font-stretch:normal;font-size:38.1px;font-family:Montserrat;-inkscape-font-specification:'Montserrat Ultra-Bold';fill:#ffffff;stroke-width:0.264583"
             id="path31" />
          <path
             d="m 114.01112,21.8567 -11.43,26.669999 H 95.151619 L 83.75972,21.8567 h 8.153399 l 7.239,17.373599 7.391401,-17.373599 z"
             style="font-style:normal;font-variant:normal;font-weight:800;font-stretch:normal;font-size:38.1px;font-family:Montserrat;-inkscape-font-specification:'Montserrat Ultra-Bold';fill:#ffffff;stroke-width:0.264583"
             id="path33" />
          <path
             d="m 136.98533,42.697399 v 5.8293 h -21.4122 V 21.8567 h 20.9169 v 5.8293 h -13.4493 v 4.4958 h 11.8491 v 5.638799 h -11.8491 v 4.8768 z"
             style="font-style:normal;font-variant:normal;font-weight:800;font-stretch:normal;font-size:38.1px;font-family:Montserrat;-inkscape-font-specification:'Montserrat Ultra-Bold';fill:#ffffff;stroke-width:0.264583"
             id="path35" />
          <path
             d="m 166.55088,21.8567 v 26.669999 h -6.2103 L 148.56768,34.3154 v 14.211299 h -7.3914 V 21.8567 h 6.2103 l 11.7729,14.2113 V 21.8567 Z"
             style="font-style:normal;font-variant:normal;font-weight:800;font-stretch:normal;font-size:38.1px;font-family:Montserrat;-inkscape-font-specification:'Montserrat Ultra-Bold';fill:#ffffff;stroke-width:0.264583"
             id="path37" />
        </g>
        <g
           aria-label="Developers"
           id="text16"
           style="font-size:38.1px;line-height:1.25;font-family:Montserrat;-inkscape-font-specification:Montserrat;text-align:center;letter-spacing:0px;word-spacing:0px;text-anchor:middle;fill:#ffffff;stroke-width:0.264583"
           transform="matrix(0.13645225,0,0,0.13645225,-0.97993879,-0.79456766)">
          <path
             d="m 171.64614,21.944995 h 10.8585 q 4.2291,0 7.4676,1.7145 3.2385,1.6764 5.0292,4.7244 1.7907,3.0099 1.7907,6.8961 0,3.886199 -1.7907,6.934199 -1.7907,3.0099 -5.0292,4.7244 -3.2385,1.6764 -7.4676,1.6764 h -10.8585 z m 10.7061,24.231599 q 3.5052,0 6.1341,-1.3716 2.6289,-1.4097 4.0767,-3.8481 1.4478,-2.4765 1.4478,-5.676899 0,-3.2004 -1.4478,-5.6388 -1.4478,-2.4765 -4.0767,-3.8481 -2.6289,-1.4097 -6.1341,-1.4097 h -7.8867 v 21.793199 z"
             style="font-size:38.1px;fill:#ffffff;stroke-width:0.264583"
             id="path40" />
          <path
             d="m 219.99497,39.432894 h -16.764 q 0.2286,3.1242 2.4003,5.0673 2.1717,1.905 5.4864,1.905 1.8669,0 3.429,-0.6477 1.5621,-0.6858 2.7051,-1.9812 l 1.524,1.7526 q -1.3335,1.6002 -3.3528,2.4384 -1.9812,0.8382 -4.3815,0.8382 -3.0861,0 -5.4864,-1.2954 -2.3622,-1.3335 -3.6957,-3.6576 -1.3335,-2.3241 -1.3335,-5.2578 0,-2.933699 1.2573,-5.257799 1.2954,-2.3241 3.5052,-3.6195 2.2479,-1.2954 5.0292,-1.2954 2.7813,0 4.9911,1.2954 2.2098,1.2954 3.4671,3.6195 1.2573,2.286 1.2573,5.257799 z m -9.6774,-8.686799 q -2.8956,0 -4.8768,1.8669 -1.9431,1.8288 -2.2098,4.800599 h 14.2113 q -0.2667,-2.971799 -2.2479,-4.800599 -1.9431,-1.8669 -4.8768,-1.8669 z"
             style="font-size:38.1px;fill:#ffffff;stroke-width:0.264583"
             id="path42" />
          <path
             d="m 242.01669,28.574395 -8.9154,20.040599 h -2.7813 l -8.8773,-20.040599 h 2.8194 l 7.5057,17.068799 7.5819,-17.068799 z"
             style="font-size:38.1px;fill:#ffffff;stroke-width:0.264583"
             id="path44" />
          <path
             d="m 262.70493,39.432894 h -16.764 q 0.2286,3.1242 2.4003,5.0673 2.1717,1.905 5.4864,1.905 1.8669,0 3.429,-0.6477 1.5621,-0.6858 2.7051,-1.9812 l 1.524,1.7526 q -1.3335,1.6002 -3.3528,2.4384 -1.9812,0.8382 -4.3815,0.8382 -3.0861,0 -5.4864,-1.2954 -2.3622,-1.3335 -3.6957,-3.6576 -1.3335,-2.3241 -1.3335,-5.2578 0,-2.933699 1.2573,-5.257799 1.2954,-2.3241 3.5052,-3.6195 2.2479,-1.2954 5.0292,-1.2954 2.7813,0 4.9911,1.2954 2.2098,1.2954 3.4671,3.6195 1.2573,2.286 1.2573,5.257799 z m -9.6774,-8.686799 q -2.8956,0 -4.8768,1.8669 -1.9431,1.8288 -2.2098,4.800599 h 14.2113 q -0.2667,-2.971799 -2.2479,-4.800599 -1.9431,-1.8669 -4.8768,-1.8669 z"
             style="font-size:38.1px;fill:#ffffff;stroke-width:0.264583"
             id="path46" />
          <path
             d="m 268.26746,20.344795 h 2.7051 v 28.270199 h -2.7051 z"
             style="font-size:38.1px;fill:#ffffff;stroke-width:0.264583"
             id="path48" />
          <path
             d="m 286.70783,48.805494 q -2.8956,0 -5.2197,-1.2954 -2.3241,-1.3335 -3.6576,-3.6576 -1.3335,-2.3241 -1.3335,-5.2578 0,-2.933699 1.3335,-5.257799 1.3335,-2.3241 3.6576,-3.6195 2.3241,-1.2954 5.2197,-1.2954 2.8956,0 5.2197,1.2954 2.3241,1.2954 3.6195,3.6195 1.3335,2.3241 1.3335,5.257799 0,2.9337 -1.3335,5.2578 -1.2954,2.3241 -3.6195,3.6576 -2.3241,1.2954 -5.2197,1.2954 z m 0,-2.4003 q 2.1336,0 3.81,-0.9525 1.7145,-0.9906 2.667,-2.7813 0.9525,-1.7907 0.9525,-4.0767 0,-2.285999 -0.9525,-4.076699 -0.9525,-1.7907 -2.667,-2.7432 -1.6764,-0.9906 -3.81,-0.9906 -2.1336,0 -3.8481,0.9906 -1.6764,0.9525 -2.667,2.7432 -0.9525,1.7907 -0.9525,4.076699 0,2.286 0.9525,4.0767 0.9906,1.7907 2.667,2.7813 1.7145,0.9525 3.8481,0.9525 z"
             style="font-size:38.1px;fill:#ffffff;stroke-width:0.264583"
             id="path50" />
          <path
             d="m 312.73009,28.421995 q 2.8194,0 5.1054,1.2954 2.286,1.2573 3.5814,3.5814 1.2954,2.3241 1.2954,5.295899 0,3.0099 -1.2954,5.334 -1.2954,2.3241 -3.5814,3.6195 -2.2479,1.2573 -5.1054,1.2573 -2.4384,0 -4.4196,-0.9906 -1.9431,-1.0287 -3.2004,-2.9718 v 11.1633 h -2.7051 V 28.574395 h 2.5908 v 3.9624 q 1.2192,-1.9812 3.2004,-3.048 2.0193,-1.0668 4.5339,-1.0668 z m -0.1905,17.983199 q 2.0955,0 3.81,-0.9525 1.7145,-0.9906 2.667,-2.7813 0.9906,-1.7907 0.9906,-4.0767 0,-2.285999 -0.9906,-4.038599 -0.9525,-1.7907 -2.667,-2.7813 -1.7145,-0.9906 -3.81,-0.9906 -2.1336,0 -3.8481,0.9906 -1.6764,0.9906 -2.667,2.7813 -0.9525,1.7526 -0.9525,4.038599 0,2.286 0.9525,4.0767 0.9906,1.7907 2.667,2.7813 1.7145,0.9525 3.8481,0.9525 z"
             style="font-size:38.1px;fill:#ffffff;stroke-width:0.264583"
             id="path52" />
          <path
             d="m 345.68656,39.432894 h -16.764 q 0.2286,3.1242 2.4003,5.0673 2.1717,1.905 5.4864,1.905 1.8669,0 3.429,-0.6477 1.5621,-0.6858 2.7051,-1.9812 l 1.524,1.7526 q -1.3335,1.6002 -3.3528,2.4384 -1.9812,0.8382 -4.3815,0.8382 -3.0861,0 -5.4864,-1.2954 -2.3622,-1.3335 -3.6957,-3.6576 -1.3335,-2.3241 -1.3335,-5.2578 0,-2.933699 1.2573,-5.257799 1.2954,-2.3241 3.5052,-3.6195 2.2479,-1.2954 5.0292,-1.2954 2.7813,0 4.9911,1.2954 2.2098,1.2954 3.4671,3.6195 1.2573,2.286 1.2573,5.257799 z m -9.6774,-8.686799 q -2.8956,0 -4.8768,1.8669 -1.9431,1.8288 -2.2098,4.800599 h 14.2113 q -0.2667,-2.971799 -2.2479,-4.800599 -1.9431,-1.8669 -4.8768,-1.8669 z"
             style="font-size:38.1px;fill:#ffffff;stroke-width:0.264583"
             id="path54" />
          <path
             d="m 353.83989,32.498695 q 0.9525,-2.0193 2.8194,-3.048 1.905,-1.0287 4.6863,-1.0287 v 2.6289 l -0.6477,-0.0381 q -3.1623,0 -4.953,1.9431 -1.7907,1.9431 -1.7907,5.448299 v 10.2108 h -2.7051 V 28.574395 h 2.5908 z"
             style="font-size:38.1px;fill:#ffffff;stroke-width:0.264583"
             id="path56" />
          <path
             d="m 371.7468,48.805494 q -2.4384,0 -4.6863,-0.6858 -2.2098,-0.7239 -3.4671,-1.7907 l 1.2192,-2.1336 q 1.2573,0.9906 3.1623,1.6383 1.905,0.6096 3.9624,0.6096 2.7432,0 4.0386,-0.8382 1.3335,-0.8763 1.3335,-2.4384 0,-1.1049 -0.7239,-1.7145 -0.7239,-0.6477 -1.8288,-0.9525 -1.1049,-0.3429 -2.9337,-0.6477 -2.4384,-0.4572 -3.9243,-0.9144 -1.4859,-0.4953 -2.5527,-1.638299 -1.0287,-1.143 -1.0287,-3.1623 0,-2.5146 2.0955,-4.1148 2.0955,-1.6002 5.8293,-1.6002 1.9431,0 3.8862,0.5334 1.9431,0.4953 3.2004,1.3335 l -1.1811,2.1717 q -2.4765,-1.7145 -5.9055,-1.7145 -2.5908,0 -3.9243,0.9144 -1.2954,0.9144 -1.2954,2.4003 0,1.143 0.7239,1.8288 0.762,0.6858 1.8669,1.0287 1.1049,0.3048 3.048,0.647699 2.4003,0.4572 3.8481,0.9144 1.4478,0.4572 2.4765,1.5621 1.0287,1.1049 1.0287,3.048 0,2.6289 -2.2098,4.191 -2.1717,1.524 -6.0579,1.524 z"
             style="font-size:38.1px;fill:#ffffff;stroke-width:0.264583"
             id="path58" />
        </g>
      </g>
    </g>
  </g>
</svg>
